<?xml version="1.0" encoding="UTF-8"?>
<svg width="74px" height="99px" viewBox="0 0 74 99" version="1.1" xmlns="http://www.w3.org/2000/svg" xmlns:xlink="http://www.w3.org/1999/xlink">
    <!-- Generator: Sketch 49.1 (51147) - http://www.bohemiancoding.com/sketch -->
    <title>Book</title>
    <desc>Created with Sketch.</desc>
    <defs></defs>
    <g id="Page-1" stroke="none" stroke-width="1" fill="none" fill-rule="evenodd">
        <g id="Book">
            <g id="Group-4" fill="#455A64" fill-rule="nonzero">
                <path d="M72.7666667,0 L11.1,0 C4.97258916,0.00705170498 0.00711581139,4.92779106 0,11 L0,74.5555556 C0.00534915093,79.2784609 3.86749244,83.1058102 8.63333333,83.1111111 L37,83.1111111 C37.6811512,83.1111111 38.2333333,82.5639036 38.2333333,81.8888889 C38.2333333,81.2138742 37.6811512,80.6666667 37,80.6666667 L8.63333333,80.6666667 C5.22757738,80.6666667 2.46666667,77.930629 2.46666667,74.5555556 C2.46666667,71.1804821 5.22757738,68.4444444 8.63333333,68.4444444 L71.5333333,68.4444444 L71.5333333,80.6666667 L69.0666667,80.6666667 C68.3855155,80.6666667 67.8333333,81.2138742 67.8333333,81.8888889 C67.8333333,82.5639036 68.3855155,83.1111111 69.0666667,83.1111111 L72.7666667,83.1111111 C73.4478179,83.1111111 74,82.5639036 74,81.8888889 L74,1.22222222 C74,0.898068735 73.8700599,0.58719173 73.638765,0.357980601 C73.4074702,0.128769472 73.093767,0 72.7666667,0 Z M8.63333333,66 C6.31072472,65.9996612 4.08664249,66.9299226 2.46666667,68.5793167 L2.46666667,11 C2.47201582,6.27709461 6.33415911,2.4497454 11.1,2.44444444 L71.5333333,2.44444444 L71.5333333,66 L8.63333333,66 Z M61.6666667,74.5555556 L44.4,74.5555556 C43.7188488,74.5555556 43.1666667,75.1027631 43.1666667,75.7777778 L43.1666667,97.7777778 C43.1666648,98.2720916 43.4671468,98.71773 43.9279909,98.9068814 C44.388835,99.0960328 44.9192798,98.9914447 45.2719667,98.6418889 L53.0333333,90.9505178 L60.7947,98.6419622 C61.1473964,98.9915275 61.6778592,99.096111 62.13871,98.9069407 C62.5995608,98.7177705 62.9000318,98.2721049 62.9,97.7777778 L62.9,75.7777778 C62.9,75.1027631 62.3478179,74.5555556 61.6666667,74.5555556 Z M60.4333333,94.82726 L53.9053,88.3580378 C53.6740722,88.1287732 53.3603874,87.9999636 53.0332963,87.9999636 C52.7062053,87.9999636 52.3925205,88.1287732 52.1612927,88.3580378 L45.6333333,94.82726 L45.6333333,77 L60.4333333,77 L60.4333333,94.82726 Z M12.3333333,8.55555556 L12.3333333,59.8888889 C12.3333333,60.5639036 11.7811512,61.1111111 11.1,61.1111111 C10.4188488,61.1111111 9.86666667,60.5639036 9.86666667,59.8888889 L9.86666667,8.55555556 C9.86666667,7.88054086 10.4188488,7.33333333 11.1,7.33333333 C11.7811512,7.33333333 12.3333333,7.88054086 12.3333333,8.55555556 Z" id="Shape"></path>
            </g>
            <path d="M26.4210526,20.5 L57.5789474,20.5" id="Line-2" stroke="#00A8E1" stroke-width="2" stroke-linecap="square"></path>
            <path d="M26.4210526,33.5 L57.5789474,33.5" id="Line-2" stroke="#00A8E1" stroke-width="2" stroke-linecap="square"></path>
            <path d="M26.4210526,47.5 L57.5789474,47.5" id="Line-2" stroke="#00A8E1" stroke-width="2" stroke-linecap="square"></path>
        </g>
    </g>
</svg>