<?xml version="1.0" encoding="UTF-8"?>
<svg width="95px" height="84px" viewBox="0 0 95 84" version="1.1" xmlns="http://www.w3.org/2000/svg" xmlns:xlink="http://www.w3.org/1999/xlink">
    <!-- Generator: Sketch 49.1 (51147) - http://www.bohemiancoding.com/sketch -->
    <title>money</title>
    <desc>Created with Sketch.</desc>
    <defs></defs>
    <g id="Page-1" stroke="none" stroke-width="1" fill="none" fill-rule="evenodd">
        <g id="money" transform="translate(1.000000, 0.000000)">
            <g id="Group">
                <g id="stack" transform="translate(32.766233, 0.122102)" stroke-width="2">
                    <path d="M2,8.23899676 L57.0724132,7.6431871 L59.2620302,7.61949838 L58.6528597,69.5693366 C57.6759222,71.2213323 56.2545243,72.460329 54.3886659,73.2863269 C46.9411226,76.5832839 46.469449,75.144822 44.0327668,75.7643204 C42.4342956,76.1707133 37.9410615,76.3838188 30.6310151,76.3838188 C27.7304509,76.3838188 23.342773,75.7643204 17.2292634,75.7643204 C16.0021678,75.7643204 7.48253481,73.9058252 5.6550232,73.2863269 C4.43668214,72.8733279 3.21834107,71.6343312 2,69.5693366 L2,8.23899676 Z" id="stack_border" stroke="#232F3E"></path>
                    <g id="stack_lines" transform="translate(0.933768, 21.817899)" fill="#FFFFFF" stroke="#00A8E1">
                        <path d="M28.3477056,8.81968099 C45.3564094,8.81968099 57.0073411,5.91623108 57.0073411,1.95993542 C57.0073411,0.175201155 58.1727455,2.95336369 53.3191039,4.89982638 C47.4134737,7.26816955 36.7997456,8.81968099 28.3477056,8.81968099 C20.3973551,8.81968099 13.8374769,7.71285232 8.00647547,5.38980821 C2.54380815,3.21350672 0.630001068,-1.42364214 0.630001068,0.489989946 C0.630001068,4.44628561 11.3390018,8.81968099 28.3477056,8.81968099 Z" id="Oval-3"></path>
                        <path d="M28.3477056,24.5025138 C45.3564094,24.5025138 57.0073411,21.5990639 57.0073411,17.6427682 C57.0073411,15.8580339 58.1727455,18.6361965 53.3191039,20.5826592 C47.4134737,22.9510023 36.7997456,24.5025138 28.3477056,24.5025138 C20.3973551,24.5025138 13.8374769,23.3956851 8.00647547,21.072641 C2.54380815,18.8963395 0.630001068,14.2591906 0.630001068,16.1728227 C0.630001068,20.1291184 11.3390018,24.5025138 28.3477056,24.5025138 Z" id="Oval-3"></path>
                        <path d="M28.3477056,40.1853466 C45.3564094,40.1853466 57.0073411,37.2818967 57.0073411,33.325601 C57.0073411,31.5408667 58.1727455,34.3190293 53.3191039,36.265492 C47.4134737,38.6338351 36.7997456,40.1853466 28.3477056,40.1853466 C20.3973551,40.1853466 13.8374769,39.0785179 8.00647547,36.7554738 C2.54380815,34.5791723 0.630001068,29.9420234 0.630001068,31.8556555 C0.630001068,35.8119512 11.3390018,40.1853466 28.3477056,40.1853466 Z" id="Oval-3"></path>
                    </g>
                    <path d="M2,8.23899676 L57.0724132,7.6431871 L59.2620302,7.61949838 L58.6528597,69.5693366 C57.6759222,71.2213323 56.2545243,72.460329 54.3886659,73.2863269 C46.9411226,76.5832839 46.469449,75.144822 44.0327668,75.7643204 C42.4342956,76.1707133 37.9410615,76.3838188 30.6310151,76.3838188 C27.7304509,76.3838188 23.342773,75.7643204 17.2292634,75.7643204 C16.0021678,75.7643204 7.48253481,73.9058252 5.6550232,73.2863269 C4.43668214,72.8733279 3.21834107,71.6343312 2,69.5693366 L2,8.23899676 Z" id="stack_outline" stroke="#232F3E"></path>
                    <ellipse id="stack_top" stroke="#232F3E" fill="#FFFFFF" cx="30.6310151" cy="8.18787047" rx="28.6310151" ry="7.30997213"></ellipse>
                </g>
                <g id="coin" transform="translate(0.000000, 24.000000)">
                    <ellipse id="Oval-3" stroke="#232F3E" stroke-width="2" fill="#FFFFFF" cx="29.2251916" cy="29.3881336" rx="29.2251916" ry="29.2398885"></ellipse>
                    <g id="Page-1" transform="translate(21.952476, 13.492207)" stroke="#0BA6DF">
                        <path d="M8,0 L8,35 L8,0 Z" id="Fill-1" stroke-width="0.5" fill="#0BA6DF"></path>
                        <g id="Group-9" transform="translate(0.000000, 4.000000)" stroke-width="2">
                            <path d="M14.8679318,3.31418269 C14.8679318,3.31418269 11.29725,0.902548077 7.52611364,0.902548077 C3.75565909,0.902548077 0.682022727,2.53610577 0.682022727,6.03745192 C0.682022727,9.538125 5.09543182,12.3387981 7.77497727,12.3387981" id="Stroke-5"></path>
                            <path d="M0.609,21.7271442 C0.609,21.7271442 4.17968182,24.1387788 7.95081818,24.1387788 C11.7212727,24.1387788 14.7949091,22.5052212 14.7949091,19.003875 C14.7949091,15.5032019 10.3815,12.7025288 7.70195455,12.7025288" id="Stroke-7"></path>
                        </g>
                    </g>
                </g>
            </g>
        </g>
    </g>
</svg>