<?xml version="1.0" encoding="UTF-8"?>
<svg width="92px" height="79px" viewBox="0 0 92 79" version="1.1" xmlns="http://www.w3.org/2000/svg" xmlns:xlink="http://www.w3.org/1999/xlink">
    <!-- Generator: Sketch 48.1 (47250) - http://www.bohemiancoding.com/sketch -->
    <title>packages</title>
    <desc>Created with Sketch.</desc>
    <defs>
        <rect id="path-1" x="0" y="53" width="30" height="25"></rect>
        <rect id="path-2" x="31" y="53" width="30" height="25"></rect>
        <rect id="path-3" x="62" y="53" width="30" height="25"></rect>
        <rect id="path-4" x="31" y="26" width="30" height="25"></rect>
        <rect id="path-5" x="62" y="26" width="30" height="25"></rect>
        <rect id="path-6" x="62" y="0" width="30" height="25"></rect>
    </defs>
    <g id="Page-1" stroke="none" stroke-width="1" fill="none" fill-rule="evenodd">
        <g id="packages" transform="translate(0.000000, 0.929400)">
            <g id="Rectangle-6">
                <use fill="#FFFFFF" fill-rule="evenodd" xlink:href="#path-1"></use>
                <rect stroke="#008296" stroke-width="3" x="1.5" y="54.5" width="27" height="22"></rect>
            </g>
            <rect id="Rectangle-6" fill="#82D8E3" x="10" y="56" width="10" height="5"></rect>
            <g id="Rectangle-6">
                <use fill="#FFFFFF" fill-rule="evenodd" xlink:href="#path-2"></use>
                <rect stroke="#008296" stroke-width="3" x="32.5" y="54.5" width="27" height="22"></rect>
            </g>
            <rect id="Rectangle-6" fill="#82D8E3" x="41" y="56" width="10" height="5"></rect>
            <g id="Rectangle-6">
                <use fill="#FFFFFF" fill-rule="evenodd" xlink:href="#path-3"></use>
                <rect stroke="#008296" stroke-width="3" x="63.5" y="54.5" width="27" height="22"></rect>
            </g>
            <rect id="Rectangle-6" fill="#82D8E3" x="72" y="56" width="10" height="5"></rect>
            <g id="Rectangle-6">
                <use fill="#FFFFFF" fill-rule="evenodd" xlink:href="#path-4"></use>
                <rect stroke="#008296" stroke-width="3" x="32.5" y="27.5" width="27" height="22"></rect>
            </g>
            <rect id="Rectangle-6" fill="#82D8E3" x="41" y="29" width="10" height="5"></rect>
            <g id="Rectangle-6">
                <use fill="#FFFFFF" fill-rule="evenodd" xlink:href="#path-5"></use>
                <rect stroke="#008296" stroke-width="3" x="63.5" y="27.5" width="27" height="22"></rect>
            </g>
            <rect id="Rectangle-6" fill="#82D8E3" x="72" y="29" width="10" height="5"></rect>
            <g id="Rectangle-6">
                <use fill="#FFFFFF" fill-rule="evenodd" xlink:href="#path-6"></use>
                <rect stroke="#008296" stroke-width="3" x="63.5" y="1.5" width="27" height="22"></rect>
            </g>
            <rect id="Rectangle-6" fill="#82D8E3" x="72" y="3" width="10" height="5"></rect>
        </g>
    </g>
</svg>