<?xml version="1.0" encoding="UTF-8"?>
<svg width="104px" height="73px" viewBox="0 0 104 73" version="1.1" xmlns="http://www.w3.org/2000/svg" xmlns:xlink="http://www.w3.org/1999/xlink">
    <!-- Generator: Sketch 48.1 (47250) - http://www.bohemiancoding.com/sketch -->
    <title>package</title>
    <desc>Created with Sketch.</desc>
    <defs></defs>
    <g id="Page-1" stroke="none" stroke-width="1" fill="none" fill-rule="evenodd">
        <g id="package" transform="translate(2.000000, 1.929400)">
            <g id="Page-1">
                <polygon id="Fill-1" fill="#FEFEFE" points="11 9.88772988 11 52.213979 49 68 49 0"></polygon>
                <polygon id="Fill-2" fill="#FEFEFE" points="87 52.3877949 87 10.0615458 50 0 50 68"></polygon>
                <polygon id="Fill-3" fill="#82D8E3" points="24 58.2273465 24 42 35 43.8044805 35 63"></polygon>
                <polygon id="Fill-4" fill="#82D8E3" points="76 58.2273465 76 42 65 43.8044805 65 63"></polygon>
                <g id="Group-9" transform="translate(10.000000, 0.000000)" stroke="#008296" stroke-linejoin="round" stroke-width="3">
                    <polygon id="Stroke-5" points="0.447879452 10.3674068 0.447879452 52.8823841 38.1064 68.7387932 38.1064 0.435588636"></polygon>
                    <polygon id="Stroke-7" points="75.7648685 53.0567136 75.7648685 10.5417364 38.1063479 0.435327273 38.1063479 68.7385318"></polygon>
                </g>
                <polygon id="Fill-10" fill="#FEFEFE" points="49 0 32.6936844 31 0 29.9550503 11.1696406 9.92702206"></polygon>
                <polygon id="Stroke-11" stroke="#008296" stroke-width="3" stroke-linejoin="round" points="49 0 32.6936844 31 0 29.9550503 11.1696406 9.92702206"></polygon>
                <polygon id="Fill-13" fill="#FEFEFE" points="50 0 66.4609683 31 100 29.9550503 88.189151 9.92702206"></polygon>
                <polygon id="Stroke-14" stroke="#008296" stroke-width="3" stroke-linejoin="round" points="50 0 66.4609683 31 100 29.9550503 88.189151 9.92702206"></polygon>
            </g>
        </g>
    </g>
</svg>