<?xml version="1.0" encoding="UTF-8"?>
<svg width="101px" height="86px" viewBox="0 0 101 86" version="1.1" xmlns="http://www.w3.org/2000/svg" xmlns:xlink="http://www.w3.org/1999/xlink">
    <!-- Generator: Sketch 49.1 (51147) - http://www.bohemiancoding.com/sketch -->
    <title>Group 15</title>
    <desc>Created with Sketch.</desc>
    <defs>
        <polygon id="path-1" points="0.0647045455 0.404519231 0.746522727 0.404519231 0.746522727 34.9998654 0.0647045455 34.9998654"></polygon>
        <path d="M8,-2.48689958e-14 L8,35 L8,-2.48689958e-14 Z" id="path-3"></path>
    </defs>
    <g id="Page-1" stroke="none" stroke-width="1" fill="none" fill-rule="evenodd">
        <g id="Group-15" transform="translate(53.563956, 42.563956) rotate(1.000000) translate(-53.563956, -42.563956) translate(-7.936044, -18.936044)">
            <g id="Page-1" transform="translate(61.350613, 61.782828) rotate(-21.000000) translate(-61.350613, -61.782828) translate(13.850613, 14.782828)">
                <polygon id="Fill-1" fill="#FEFEFE" points="0 40.7364808 52.5818721 92.615539 93.8707185 51.8784274 41.2888464 0 6.47955248 6.39286849"></polygon>
                <g id="Group-10" stroke="#232F3E" stroke-linejoin="round" stroke-width="2">
                    <polygon id="Stroke-2" points="0.31979577 41.177588 52.9236416 93.0786798 94.2297425 52.3242667 41.6258967 0.423806014 6.80205604 6.81938962"></polygon>
                    <path d="M21.4886595,15.5322092 C23.1056275,17.1275561 23.1056275,19.7139933 21.4886595,21.3093402 C19.8716916,22.905373 17.2495063,22.905373 15.6332335,21.3093402 C14.0162656,19.7139933 14.0162656,17.1275561 15.6332335,15.5322092 C17.2495063,13.9368624 19.8716916,13.9368624 21.4886595,15.5322092 Z" id="Stroke-4" fill="#FFFFFF"></path>
                </g>
            </g>
            <g id="Page-1" transform="translate(47.377681, 55.983614) rotate(21.000000) translate(-47.377681, -55.983614) translate(39.877681, 37.983614)">
                <path d="M8,1 L8,36 L8,1 Z" id="Fill-1" stroke="#0BA6DF" stroke-width="0.3" fill="#0BA6DF"></path>
                <g id="Group-9">
                    <g id="Group-4" transform="translate(7.500000, 0.000000)">
                        <mask id="mask-2" fill="white">
                            <use xlink:href="#path-1"></use>
                        </mask>
                        <g id="Clip-3"></g>
                        <path d="M0.0647045455,0.404384615 L0.0647045455,34.9998654" id="Stroke-2" stroke="#0BA6DF" stroke-width="2" mask="url(#mask-2)"></path>
                    </g>
                    <path d="M14.8679318,8.31418269 C14.8679318,8.31418269 11.29725,5.90254808 7.52611364,5.90254808 C3.75565909,5.90254808 0.682022727,7.53610577 0.682022727,11.0374519 C0.682022727,14.538125 5.09543182,17.3387981 7.77497727,17.3387981" id="Stroke-5" stroke="#0BA6DF" stroke-width="2"></path>
                    <path d="M0.609,26.7271442 C0.609,26.7271442 4.17968182,29.1387788 7.95081818,29.1387788 C11.7212727,29.1387788 14.7949091,27.5052212 14.7949091,24.003875 C14.7949091,20.5032019 10.3815,17.7025288 7.70195455,17.7025288" id="Stroke-7" stroke="#0BA6DF" stroke-width="2"></path>
                </g>
            </g>
            <g id="Page-1" transform="translate(70.369518, 66.047476) rotate(21.000000) translate(-70.369518, -66.047476) translate(62.869518, 48.547476)">
                <g id="Fill-1">
                    <use fill="#0BA6DF" fill-rule="evenodd" xlink:href="#path-3"></use>
                    <path stroke="#0BA6DF" stroke-width="0.3" d="M7.85,-2.48689958e-14 L8.15,-2.48689958e-14 L8.15,35 L7.85,35 L7.85,-2.48689958e-14 Z M8.15,-2.48689958e-14 L8.15,35 L7.85,35 L7.85,-2.48689958e-14 L8.15,-2.48689958e-14 Z"></path>
                </g>
                <g id="Group-9" transform="translate(0.000000, 4.000000)" stroke="#0BA6DF" stroke-width="2">
                    <path d="M14.8679318,3.31418269 C14.8679318,3.31418269 11.29725,0.902548077 7.52611364,0.902548077 C3.75565909,0.902548077 0.682022727,2.53610577 0.682022727,6.03745192 C0.682022727,9.538125 5.09543182,12.3387981 7.77497727,12.3387981" id="Stroke-5"></path>
                    <path d="M0.609,21.7271442 C0.609,21.7271442 4.17968182,24.1387788 7.95081818,24.1387788 C11.7212727,24.1387788 14.7949091,22.5052212 14.7949091,19.003875 C14.7949091,15.5032019 10.3815,12.7025288 7.70195455,12.7025288" id="Stroke-7"></path>
                </g>
            </g>
        </g>
    </g>
</svg>