<?xml version="1.0" encoding="UTF-8"?>
<svg width="94px" height="60px" viewBox="0 0 94 60" version="1.1" xmlns="http://www.w3.org/2000/svg" xmlns:xlink="http://www.w3.org/1999/xlink">
    <!-- Generator: Sketch 48.1 (47250) - http://www.bohemiancoding.com/sketch -->
    <title>van</title>
    <desc>Created with Sketch.</desc>
    <defs></defs>
    <g id="Page-1" stroke="none" stroke-width="1" fill="none" fill-rule="evenodd">
        <g id="van" transform="translate(2.000000, 1.929400)">
            <path d="M0,0 L72.607362,0 L78.9570552,17.8909985 L90,23.9464134 L90,42.9383964 L85.5828221,42.9383964 C93.5810811,42.9383964 86.1270934,42.9383964 63.2208589,42.9383964 C61.8404908,42.9383964 59.4391876,43.0770046 57.1472393,42.9383964 C53.3760839,42.7103314 49.1752869,43.1312585 45,42.9383964 C40.9931481,42.7533145 34.6434548,42.7533145 25.9509202,42.9383964 L4.96932515,42.9383964 L0,42.9383964 L0,0 Z" id="Path-2" stroke="#008296" stroke-width="3" fill="#FFFFFF"></path>
            <circle id="Oval-4" stroke="#008296" stroke-width="3" fill="#FFFFFF" cx="19" cy="45" r="11"></circle>
            <circle id="Oval-4" stroke="#008296" stroke-width="3" fill="#FFFFFF" cx="69" cy="45" r="11"></circle>
            <path d="M40.7337553,15.8818149 C36.9979122,19.0136406 31.4933524,20.8081011 26.7080718,20.9828947 C20.0020304,21.2279393 13.8777462,18.8269841 9.16560083,14.6289734 C8.79572577,14.2997758 9.10033906,13.8198814 9.54054987,14.0691892 C14.569556,16.9240886 20.7263837,18.5287415 27.0238828,18.2985256 C31.2718472,18.1433801 35.9117322,17.0403087 40.1455245,14.955576 C40.7843201,14.6412071 41.3517301,15.3637365 40.7337553,15.8818149" id="Fill-1" fill="#82D8E3"></path>
            <path d="M41.3970429,14.5866941 C40.9284558,14.0209203 38.4223873,14.4148833 37.2963054,14.591241 C36.955311,14.6448304 36.8920749,14.343918 37.1935268,14.1133214 C39.1524034,12.6154175 42.4555663,12.9129197 42.8538734,13.3775232 C43.2557024,13.8458618 42.8828499,17.2025044 41.0558885,18.8628003 C40.7746081,19.1177557 40.4950888,18.9969361 40.6124357,18.6687418 C40.9990561,17.5833137 41.8661103,15.1527926 41.3970429,14.5866941" id="Fill-4" fill="#82D8E3"></path>
            <polygon id="Path-13" stroke="#008296" stroke-width="3" points="54 8 67.3 8 73 23 54 23"></polygon>
        </g>
    </g>
</svg>